<?xml version="1.0" encoding="utf-8"?>
<!-- Generator: Adobe Illustrator 24.3.0, SVG Export Plug-In . SVG Version: 6.00 Build 0)  -->
<svg version="1.1" id="Layer_1" xmlns="http://www.w3.org/2000/svg" xmlns:xlink="http://www.w3.org/1999/xlink" x="0px" y="0px"
	 viewBox="0 0 420 130" style="enable-background:new 0 0 420 130;" xml:space="preserve">
<style type="text/css">
	.st0{fill:#0E63BD;}
	.st1{fill:#FFFFFF;}
	.st2{font-family:'Poppins-SemiBold';}
	.st3{font-size:50.9982px;}
	.st4{fill:#909090;}
	.st5{font-size:26.8449px;}
	.st6{letter-spacing:6;}
</style>
<g id="Logo_3_">
	<g id="Monogram_3_">
		<polygon class="st0" points="12.44,35.93 12.44,94.07 25.58,101.66 25.58,86.49 25.58,79.14 25.58,43.51 62.8,22.02 100.02,43.51 
			100.02,86.49 62.8,107.98 62.8,123.15 113.16,94.07 113.16,35.93 62.8,6.85 		"/>
		<g>
			<path class="st0" d="M62.8,93.89l25.02-14.44V50.56L62.8,36.11L37.78,50.56v16.47v12.42v29.31l13.71,7.91V87.36L62.8,93.89z
				 M51.49,67.03v-8.56l11.31-6.53l11.31,6.53v13.06L62.8,78.06l-11.31-6.53V67.03z"/>
		</g>
	</g>
	<g id="Texts_3_">
		<g>
			<text transform="matrix(1 0 0 1 123.0433 71.9899)" class="st0 st2 st3">Pratapsinh</text>
		</g>
		<g>
			<text transform="matrix(1 0 0 1 124.596 93.9128)" class="st4 st2 st5 st6">Parmar</text>
		</g>
	</g>
</g>
</svg>
