<?xml version="1.0" encoding="utf-8"?>
<!-- Generator: Adobe Illustrator 24.3.0, SVG Export Plug-In . SVG Version: 6.00 Build 0)  -->
<svg version="1.1" id="Layer_1" xmlns="http://www.w3.org/2000/svg" xmlns:xlink="http://www.w3.org/1999/xlink" x="0px" y="0px"
	 viewBox="0 0 500 500" style="enable-background:new 0 0 500 500;" xml:space="preserve">
<style type="text/css">
	.st0{fill:#ffbc5e;}
	.st1{fill:#FFFFFF;}
</style>
<g id="Logo">
	<g id="Monogram">
		<polygon class="st0" points="48.06,133.41 48.06,366.59 100.74,397 100.74,336.18 100.74,306.69 100.74,163.82 250,77.65 
			399.26,163.82 399.26,336.18 250,422.35 250,483.18 451.94,366.59 451.94,133.41 250,16.82 		"/>
		<g>
			<path class="st0" d="M250,365.84l100.32-57.92V192.08L250,134.16l-100.32,57.92v66.05v49.79v117.55l54.97,31.74V339.66
				L250,365.84z M204.65,258.13v-34.31L250,197.63l45.35,26.18v52.37L250,302.37l-45.35-26.18V258.13z"/>
		</g>
	</g>
</g>
</svg>
